M48
; DRILL file {KiCad 9.0.3} date 2025-11-27T23:28:21+0530
; FORMAT={-:-/ absolute / metric / decimal}
; #@! TF.CreationDate,2025-11-27T23:28:21+05:30
; #@! TF.GenerationSoftware,Kicad,Pcbnew,9.0.3
; #@! TF.FileFunction,Plated,1,2,PTH
FMAT,2
METRIC
; #@! TA.AperFunction,Plated,PTH,ViaDrill
T1C0.300
; #@! TA.AperFunction,Plated,PTH,ComponentDrill
T2C0.600
; #@! TA.AperFunction,Plated,PTH,ComponentDrill
T3C1.000
%
G90
G05
T1
X143.5Y-111.25
X148.0Y-111.0
X148.9Y-110.25
X149.5Y-111.35
X150.5Y-113.82
X151.25Y-108.025
X151.5Y-111.5
X152.0Y-110.15
X153.0Y-111.75
X153.5Y-109.5
X154.0Y-114.5
X155.375Y-113.875
X156.472Y-111.156
X156.491Y-110.191
X156.514Y-109.219
X156.806Y-111.691
X156.844Y-109.695
X156.882Y-110.631
X157.15Y-110.201
X157.198Y-109.226
X157.255Y-111.137
X157.561Y-109.723
X157.637Y-110.65
X157.694Y-111.729
X157.819Y-109.226
X157.876Y-110.201
X157.943Y-111.185
X158.22Y-109.723
X158.306Y-110.688
X158.42Y-111.739
X158.554Y-109.236
X158.602Y-110.22
X158.65Y-111.213
X158.85Y-109.695
X158.927Y-110.65
X158.993Y-111.72
X159.25Y-105.75
X160.75Y-116.5
X161.0Y-106.5
X161.0Y-109.75
X163.25Y-115.0
T3
X167.5Y-106.0
X167.5Y-108.54
X167.5Y-111.08
X167.5Y-113.62
X167.5Y-116.16
T2
G00X141.75Y-106.68
M15
G01X141.15Y-106.68
M16
G05
G00X141.75Y-115.32
M15
G01X141.15Y-115.32
M16
G05
G00X146.18Y-106.68
M15
G01X145.08Y-106.68
M16
G05
G00X146.18Y-115.32
M15
G01X145.08Y-115.32
M16
G05
M30
